<svg height="512pt" viewBox="0 -72 512 512" width="512pt" xmlns="http://www.w3.org/2000/svg"><path d="m0 357.714844c0 5.570312 4.511719 10.082031 10.082031 10.082031h491.835938s10.082031-4.511719 10.082031-10.082031v-263.128906c0-5.566407-4.511719-10.082032-10.082031-10.082032h-49.9375v-74.421875c0-5.570312-4.511719-10.082031-10.078125-10.082031h-371.957032c-5.570312 0-10.082031 4.511719-10.082031 10.082031v74.421875h-49.78125c-5.570312 0-10.082031 4.515625-10.082031 10.082032zm215.164062-253.050782c12.945313 0 12.964844-20.160156 0-20.160156h-135.140624v-64.34375h351.796874v64.34375h-136.347656c-12.941406 0-12.960937 20.160156 0 20.160156h196.363282v81.164063h-146.328126c-5.566406 0-10.082031 4.511719-10.082031 10.082031v20.160156h-158.855469v-20.160156c0-5.570312-4.511718-10.082031-10.078124-10.082031h-146.332032v-81.164063zm-38.59375 131.566407h158.855469v111.402343h-158.855469zm-156.410156 111.40625v-141.648438h136.25v141.644531h-136.25zm335.429688 0v-141.648438h136.246094v141.644531h-136.246094zm0 0"/><path d="m223.445312 193.03125c5.566407 0 10.078126-4.515625 10.078126-10.082031v-44.351563c0-12.945312-20.160157-12.964844-20.160157 0v44.351563c0 5.566406 4.511719 10.082031 10.082031 10.082031zm0 0"/><path d="m255.195312 128.515625c-5.566406 0-10.082031 4.515625-10.082031 10.082031v44.351563c0 12.945312 20.164063 12.964843 20.164063 0v-44.351563c0-5.566406-4.515625-10.082031-10.082032-10.082031zm0 0"/><path d="m286.949219 193.03125c5.566406 0 10.078125-4.515625 10.078125-10.082031v-44.351563c0-12.945312-20.160156-12.964844-20.160156 0v44.351563c0 5.566406 4.515624 10.082031 10.082031 10.082031zm0 0"/><path d="m355.996094 174.6875h114.625c5.566406 0 10.078125-4.515625 10.078125-10.082031v-37.671875c0-5.566406-4.511719-10.082032-10.078125-10.082032h-114.625c-5.570313 0-10.082032 4.515626-10.082032 10.082032v37.671875c0 5.566406 4.511719 10.082031 10.082032 10.082031zm10.078125-37.671875h94.464843v17.507813h-94.464843zm0 0"/><path d="m61.941406 174.6875c15.945313 0 28.914063-12.972656 28.914063-28.917969 0-15.945312-12.96875-28.917969-28.914063-28.917969-15.945312 0-28.917968 12.972657-28.917968 28.917969 0 15.945313 12.972656 28.917969 28.917968 28.917969zm0-37.671875c4.828125 0 8.753906 3.925781 8.753906 8.753906s-3.925781 8.753907-8.753906 8.753907-8.757812-3.925782-8.757812-8.753907 3.929687-8.753906 8.757812-8.753906zm0 0"/><path d="m128.789062 174.6875c15.945313 0 28.917969-12.972656 28.917969-28.917969 0-15.945312-12.972656-28.917969-28.917969-28.917969-15.945312 0-28.914062 12.972657-28.914062 28.917969 0 15.945313 12.96875 28.917969 28.914062 28.917969zm0-37.671875c4.828126 0 8.753907 3.925781 8.753907 8.753906s-3.925781 8.753907-8.753907 8.753907c-4.828124 0-8.753906-3.925782-8.753906-8.753907s3.925782-8.753906 8.753906-8.753906zm0 0"/><path d="m88.285156 221.53125c-31.125 0-56.449218 25.324219-56.449218 56.453125 0 31.125 25.324218 56.449219 56.449218 56.449219 31.128906 0 56.453125-25.324219 56.453125-56.449219 0-31.128906-25.324219-56.453125-56.453125-56.453125zm0 92.742188c-20.011718 0-36.289062-16.28125-36.289062-36.289063 0-20.011719 16.277344-36.292969 36.289062-36.292969 20.011719 0 36.289063 16.28125 36.289063 36.292969 0 20.007813-16.277344 36.289063-36.289063 36.289063zm0 0"/><path d="m424.71875 221.53125c-31.125 0-56.449219 25.324219-56.449219 56.453125 0 31.125 25.324219 56.449219 56.449219 56.449219 31.128906 0 56.453125-25.324219 56.453125-56.449219 0-31.128906-25.324219-56.453125-56.453125-56.453125zm0 92.742188c-20.011719 0-36.289062-16.28125-36.289062-36.289063 0-20.011719 16.277343-36.292969 36.289062-36.292969s36.289062 16.28125 36.289062 36.292969c0 20.007813-16.277343 36.289063-36.289062 36.289063zm0 0"/><path d="m88.910156 267.914062c-5.394531 0-9.984375 4.515626-10.054687 9.910157-.074219 5.59375 4.5 10.210937 10.082031 10.21875 5.570312.007812 10.160156-4.722657 10.042969-10.285157-.109375-5.359374-4.71875-9.84375-10.070313-9.84375zm0 0"/><path d="m255.195312 104.667969c5.390626 0 9.992188-4.515625 10.0625-9.910157.070313-5.59375-4.507812-10.214843-10.085937-10.21875-5.5625-.007812-10.164063 4.722657-10.050781 10.289063.113281 5.347656 4.730468 9.839844 10.074218 9.839844zm0 0"/><path d="m423.714844 266.730469c-5.390625 0-9.992188 4.519531-10.0625 9.910156-.074219 5.589844 4.507812 10.214844 10.085937 10.21875 5.5625.007813 10.164063-4.726563 10.046875-10.289063-.109375-5.347656-4.726562-9.839843-10.070312-9.839843zm0 0"/><path d="m310.445312 251.351562h-107.898437c-5.566406 0-10.082031 4.511719-10.082031 10.082032v61.910156c0 5.566406 4.515625 10.082031 10.082031 10.082031h107.898437c5.566407 0 10.078126-4.515625 10.078126-10.082031v-61.910156c0-5.570313-4.511719-10.082032-10.078126-10.082032zm-10.082031 61.914063h-87.734375v-41.75h87.734375zm0 0"/></svg>